<svg width="273" height="74" viewBox="0 0 273 74" fill="none" xmlns="http://www.w3.org/2000/svg">
<path d="M244.356 54.9697C239.894 54.9697 237.213 52.9574 237.213 49.6855C237.213 45.8913 240.708 43.9558 247.406 43.9558H253.727V45.2231C253.581 51.475 250.163 54.9697 244.356 54.9697ZM233.273 37.1124H238.481C239.003 33.3182 241.753 31.3059 246.223 31.3059C250.985 31.3059 253.734 33.541 253.734 37.3351V39.862H249.418C237.958 39.862 231.86 43.3567 231.86 49.9082C231.86 55.492 236.253 58.9866 243.396 58.9866C248.458 58.9866 252.175 57.2047 253.811 53.9251V58.1648L253.888 58.2416H259.019V38.7484C259.019 31.2368 254.848 27.289 246.745 27.289C238.926 27.2967 233.865 31.0141 233.273 37.1124ZM144.432 54.9697C139.97 54.9697 137.29 52.9574 137.29 49.6855C137.29 45.8913 140.784 43.9558 147.482 43.9558H153.803V45.2231C153.657 51.475 150.231 54.9697 144.432 54.9697ZM133.342 37.1124H138.549C139.071 33.3182 141.821 31.3059 146.291 31.3059C151.053 31.3059 153.803 33.541 153.803 37.3351V39.862H149.486C138.027 39.862 131.929 43.3567 131.929 49.9082C131.929 55.492 136.322 58.9866 143.465 58.9866C148.526 58.9866 152.244 57.2047 153.88 53.9251V58.1648L153.956 58.2416H159.087V38.7484C159.087 31.2368 154.924 27.289 146.813 27.289C139.002 27.2967 133.941 31.0141 133.342 37.1124ZM220.401 43.2185C220.401 35.776 216.906 31.3904 211.023 31.3904C204.994 31.3904 201.13 36.0064 201.13 43.2185C201.13 50.3614 205.001 54.9774 210.954 54.9774C216.898 54.9697 220.401 50.5841 220.401 43.2185ZM210.355 27.3658C214.817 27.3658 218.388 29.2245 220.178 32.4964V28.1031H225.385V70.8146H220.401L220.178 70.6687V53.856C217.797 57.3506 214.594 58.9866 210.132 58.9866C201.499 58.9866 195.769 52.8115 195.769 43.3644C195.769 33.8405 201.645 27.3658 210.355 27.3658ZM165.784 36.3674C165.784 30.8604 170.546 27.3658 178.135 27.3658C185.723 27.3658 190.631 30.8604 191.23 36.7437H186.023C185.278 33.1723 182.751 31.3827 178.357 31.3827C173.964 31.3827 171.138 33.0955 171.138 35.776C171.138 38.0802 173.073 39.5702 176.944 40.2384L182.152 41.1293C188.55 42.243 191.675 45.0695 191.675 49.7623C191.675 55.5688 186.99 58.9866 178.949 58.9866C170.615 58.9866 165.554 55.3383 164.809 48.9404H170.016C170.838 52.8806 173.887 54.9697 178.872 54.9697C183.557 54.9697 186.314 53.111 186.314 49.985C186.314 47.5272 184.456 46.114 180.362 45.4458L175.078 44.5549C168.834 43.2876 165.784 40.6147 165.784 36.3674ZM101.721 20.4456V37.412H114.225C120.177 37.412 123.38 34.5087 123.38 29.0786C123.38 23.4948 120.108 20.4456 114.225 20.4456H101.721ZM96.1372 58.2493V15.7605H114.962C123.664 15.7605 129.102 20.822 129.102 29.0018C129.102 37.0356 123.672 42.0971 115.039 42.0971H101.721V58.2416H96.1372V58.2493ZM267.198 58.2493H272.406V15.7605H267.198V58.2493Z" fill="#E1F6E9"/>
<path d="M37.0125 33.7791C35.2306 33.7791 33.7866 35.223 33.7866 37.0049C33.7866 38.7868 35.2306 40.2307 37.0125 40.2307C38.7943 40.2307 40.2383 38.7868 40.2383 37.0049C40.2383 35.223 38.7943 33.7791 37.0125 33.7791Z" fill="#E1F6E9"/>
<path d="M37.0125 51.9819C35.2306 51.9819 33.7866 53.4259 33.7866 55.2077C33.7866 56.9896 35.2306 58.4336 37.0125 58.4336C38.7943 58.4336 40.2383 56.9896 40.2383 55.2077C40.2383 53.4259 38.7943 51.9819 37.0125 51.9819Z" fill="#E1F6E9"/>
<path d="M35.9218 67.7578L30.9141 62.7501C31.3211 61.6134 31.083 60.2923 30.1691 59.3783C28.9095 58.1187 26.8664 58.1187 25.6068 59.3783C24.3472 60.6379 24.3472 62.6809 25.6068 63.9405C26.5208 64.8545 27.8419 65.0926 28.9786 64.6856L33.9863 69.6933C33.5792 70.83 33.8173 72.1511 34.7313 73.065C35.9909 74.3246 38.0339 74.3246 39.2936 73.065C40.5532 71.8054 40.5532 69.7624 39.2936 68.5028C38.3796 67.5888 37.0585 67.3507 35.9218 67.7578Z" fill="#E1F6E9"/>
<path d="M26.4132 47.5963C25.1536 46.3367 23.1106 46.3367 21.851 47.5963C20.5913 48.8559 20.5913 50.899 21.851 52.1586C23.1106 53.4182 25.1536 53.4182 26.4132 52.1586C27.6728 50.899 27.6728 48.8559 26.4132 47.5963Z" fill="#E1F6E9"/>
<path d="M16.3442 47.988C16.3442 46.2062 14.9003 44.7622 13.1184 44.7622C11.3365 44.7622 9.89258 46.2062 9.89258 47.988C9.89258 49.2784 10.653 50.3844 11.7513 50.899V57.9804C10.653 58.495 9.89258 59.601 9.89258 60.8914C9.89258 62.6732 11.3365 64.1172 13.1184 64.1172C14.9003 64.1172 16.3442 62.6732 16.3442 60.8914C16.3442 59.601 15.5839 58.495 14.4856 57.9804V50.899C15.5839 50.3844 16.3442 49.2784 16.3442 47.988Z" fill="#E1F6E9"/>
<path d="M22.0278 37.0049C22.0278 35.223 20.5839 33.7791 18.802 33.7791C17.0201 33.7791 15.5762 35.223 15.5762 37.0049C15.5762 38.7868 17.0201 40.2307 18.802 40.2307C20.5839 40.2307 22.0278 38.7868 22.0278 37.0049Z" fill="#E1F6E9"/>
<path d="M11.2597 30.9065C12.3964 31.3136 13.7175 31.0755 14.6314 30.1615C15.8911 28.9019 15.8911 26.8589 14.6314 25.5992C13.3718 24.3396 11.3288 24.3396 10.0692 25.5992C9.15521 26.5132 8.91712 27.8343 9.32418 28.971L4.31647 33.9787C3.17975 33.5717 1.85869 33.8098 0.944707 34.7237C-0.314902 35.9833 -0.314902 38.0264 0.944707 39.286C2.20432 40.5456 4.24734 40.5456 5.50695 39.286C6.42094 38.372 6.65904 37.0509 6.25197 35.9142L11.2597 30.9065Z" fill="#E1F6E9"/>
<path d="M34.7313 16.5132C33.4717 17.7728 33.4717 19.8158 34.7313 21.0754C35.9909 22.335 38.034 22.335 39.2936 21.0754C40.5532 19.8158 40.5532 17.7728 39.2936 16.5132C38.034 15.2536 35.9909 15.2536 34.7313 16.5132Z" fill="#E1F6E9"/>
<path d="M21.851 21.8435C20.5913 23.1031 20.5913 25.1461 21.851 26.4058C23.1106 27.6654 25.1536 27.6654 26.4132 26.4058C27.6728 25.1461 27.6728 23.1031 26.4132 21.8435C25.1536 20.5839 23.1182 20.5839 21.851 21.8435Z" fill="#E1F6E9"/>
<path d="M13.1262 16.3366C14.4165 16.3366 15.5225 15.5762 16.0371 14.4779H23.1186C23.6332 15.5762 24.7392 16.3366 26.0295 16.3366C27.8114 16.3366 29.2554 14.8926 29.2554 13.1107C29.2554 11.3288 27.8114 9.88489 26.0295 9.88489C24.7392 9.88489 23.6332 10.6453 23.1186 11.7436H16.0371C15.5225 10.6453 14.4165 9.88489 13.1262 9.88489C11.3443 9.88489 9.90039 11.3288 9.90039 13.1107C9.90039 14.8926 11.3443 16.3366 13.1262 16.3366Z" fill="#E1F6E9"/>
<path d="M48.4181 14.6314C49.6777 13.3718 49.6777 11.3288 48.4181 10.0692C47.5041 9.15521 46.183 8.91712 45.0463 9.32418L40.0386 4.31647C40.4456 3.17975 40.2076 1.85869 39.2936 0.944707C38.034 -0.314902 35.9909 -0.314902 34.7313 0.944707C33.4717 2.20432 33.4717 4.24734 34.7313 5.50695C35.6453 6.42094 36.9664 6.65904 38.1031 6.25197L43.1108 11.2597C42.7037 12.3964 42.9418 13.7175 43.8558 14.6314C45.1154 15.8911 47.1584 15.8911 48.4181 14.6314Z" fill="#E1F6E9"/>
<path d="M47.6039 26.4134C48.8635 27.6731 50.9065 27.6731 52.1661 26.4134C53.4257 25.1538 53.4257 23.1108 52.1661 21.8512C50.9065 20.5916 48.8635 20.5916 47.6039 21.8512C46.3443 23.1108 46.3443 25.1538 47.6039 26.4134Z" fill="#E1F6E9"/>
<path d="M57.6733 26.0217C57.6733 27.8036 59.1173 29.2476 60.8992 29.2476C62.6811 29.2476 64.125 27.8036 64.125 26.0217C64.125 24.7314 63.3646 23.6254 62.2663 23.1108V16.0293C63.3646 15.5147 64.125 14.4087 64.125 13.1184C64.125 11.3365 62.6811 9.89258 60.8992 9.89258C59.1173 9.89258 57.6733 11.3365 57.6733 13.1184C57.6733 14.4087 58.4337 15.5147 59.532 16.0293V23.1108C58.4414 23.6254 57.6733 24.7314 57.6733 26.0217Z" fill="#E1F6E9"/>
<path d="M51.9897 37.0049C51.9897 38.7868 53.4337 40.2307 55.2156 40.2307C56.9975 40.2307 58.4414 38.7868 58.4414 37.0049C58.4414 35.223 56.9975 33.7791 55.2156 33.7791C53.4337 33.7791 51.9897 35.223 51.9897 37.0049Z" fill="#E1F6E9"/>
<path d="M73.0729 34.7238C71.8132 33.4642 69.7702 33.4642 68.5106 34.7238C67.5966 35.6377 67.3585 36.9588 67.7656 38.0955L62.7579 43.1032C61.6212 42.6961 60.3001 42.9342 59.3861 43.8482C58.1265 45.1078 58.1265 47.1509 59.3861 48.4105C60.6457 49.6701 62.6887 49.6701 63.9484 48.4105C64.8623 47.4965 65.1004 46.1754 64.6934 45.0387L69.7011 40.031C70.8378 40.4381 72.1589 40.2 73.0729 39.286C74.3325 38.0264 74.3325 35.9834 73.0729 34.7238Z" fill="#E1F6E9"/>
<path d="M47.6039 47.5963C46.3443 48.8559 46.3443 50.899 47.6039 52.1586C48.8635 53.4182 50.9065 53.4182 52.1661 52.1586C53.4257 50.899 53.4257 48.8559 52.1661 47.5963C50.9065 46.3367 48.8635 46.3367 47.6039 47.5963Z" fill="#E1F6E9"/>
<path d="M60.8992 57.6655C59.6088 57.6655 58.5028 58.4259 57.9882 59.5242H50.9068C50.3922 58.4259 49.2862 57.6655 47.9958 57.6655C46.214 57.6655 44.77 59.1095 44.77 60.8913C44.77 62.6732 46.214 64.1172 47.9958 64.1172C49.2862 64.1172 50.3922 63.3568 50.9068 62.2585H57.9882C58.5028 63.3568 59.6088 64.1172 60.8992 64.1172C62.6811 64.1172 64.125 62.6732 64.125 60.8913C64.125 59.1095 62.6811 57.6655 60.8992 57.6655Z" fill="#E1F6E9"/>
</svg>
