<?xml version="1.0" encoding="UTF-8"?><svg id="New" xmlns="http://www.w3.org/2000/svg" xmlns:xlink="http://www.w3.org/1999/xlink" viewBox="0 0 318.27401 86.51984"><defs><style>.cls-1{fill:#e1f6e9;}</style><symbol id="Pulser_2" viewBox="0 0 224.11171 57.88839"><path class="cls-1" d="M25.19806.00076H0v56.86865h7.4696v-21.61212h17.82739c11.55371,0,18.82373-6.77271,18.82373-17.52887C44.12073,6.77267,36.85071.00076,25.19806.00076ZM24.20148,28.9827H7.46906V6.27505h16.73242c7.8681,0,12.25079,4.08331,12.25079,11.55298,0,7.27014-4.2829,11.15466-12.25079,11.15466ZM87.72599,16.63814v40.23828h-6.62354l-.12891-.12891v-5.91266c-2.80212,5.04279-7.87494,7.05353-13.37762,7.05353-13.5285,0-16.06213-8.06348-16.06213-14.33441v-26.91583h6.9502v25.13367l.00049-.00012c0,3.69196.823,10.5675,9.88245,10.5675,1.95959,0,11.24738-.16302,12.40887-11.9469v-23.75415h6.9502ZM97.20072,0h6.97155v56.86942h-6.97155V0ZM113.53854,27.50186c0-7.36991,6.37362-12.05116,16.53283-12.05116,10.15838,0,16.73159,4.68125,17.52913,12.54931h-6.97241c-.99546-4.78021-4.38185-7.17115-10.25816-7.17115s-9.66106,2.29114-9.66106,5.87631c0,3.08784,2.5897,5.0796,7.76911,5.9761l6.97157,1.19506c8.56496,1.49361,12.74806,5.27837,12.74806,11.55302,0,7.76826-6.27465,12.34972-17.03097,12.34972-11.15466,0-17.92747-4.88001-18.92293-13.44497h6.97157c1.09526,5.27837,5.17855,8.06682,11.85156,8.06682,6.27467,0,9.95962-2.48991,9.95962-6.67301,0-3.28661-2.4899-5.17857-7.96702-6.07507l-7.07137-1.19506c-8.36621-1.6932-12.44952-5.27835-12.44952-10.95591M193.37858,35.37233c-.64484-17.23511-13.33325-19.68469-19.89636-19.68469-6.73535,0-19.49744,2.57263-19.49744,21.06537s13.19214,21.06537,19.92749,21.06537v-.51392l.00214.51392c2.80457-.02948,5.31482-.38123,7.53619-1.1059v.00555c.17572-.05829.34393-.12531.51617-.18781,2.5072-.89398,4.60364-2.19989,6.23315-3.84119,2.0498-2.00891,3.43817-4.45496,4.0498-7.1275.11554-.50488.28064-1.4541.34161-2.50653h-6.83173c-.00293.02795-.00488.05261-.00806.08112-.37714,3.4079-1.85065,6.11621-5.02905,7.8999v.00134c-1.64398.90869-3.29565,1.37195-6.80811,1.37195-.00079,0-.00134.00323-.00214.00342v-.00427c-6.53741,0-12.3183-3.92529-12.77917-14.20367h32.27661v-2.82019l-.03113-.01227ZM173.61235,21.09755c6.2326,0,11.51074,2.50208,12.63098,11.76807h-24.87891c1.21277-8.34576,6.3092-11.76807,12.24792-11.76807ZM224.11171,16.47165v5.65131h-5.92688c-2.88617,0-9.43652.44775-10.01813,11.40076v23.3457h-6.59619l-.354-.354V16.63113h6.75244v6.04156c2.80212-5.04285,5.77435-6.20105,10.65302-6.20105h5.48975Z"/></symbol></defs><use width="224.11171" height="57.88839" transform="translate(104.66939 16.17181) scale(.93672)" xlink:href="#Pulser_2"/><path class="cls-1" d="M62.14574,37.15168c-.5625,0-1.1084-.29102-1.40918-.8125-.44922-.77734-.18262-1.77148.59473-2.21973l12.06152-6.96387c.77832-.44824,1.77148-.18164,2.21973.59473.44922.77734.18262,1.77148-.59473,2.21973l-12.06152,6.96387c-.25586.14746-.53516.21777-.81055.21777ZM57.80297,30.63118l14.06152-24.35645c.44922-.77734.18262-1.77148-.59473-2.21973-.7793-.44922-1.77148-.18164-2.21973.59473l-14.06152,24.35645c-.44922.77734-.18262,1.77148.59473,2.21973.25586.14746.53516.21777.81055.21777.5625,0,1.1084-.29102,1.40918-.8125ZM50.18676,27.70442v-13.98047c0-.89746-.72754-1.625-1.625-1.625s-1.625.72754-1.625,1.625v13.98047c0,.89746.72754,1.625,1.625,1.625s1.625-.72754,1.625-1.625ZM41.56664,31.19954c.77734-.44824,1.04395-1.44238.59473-2.21973L28.0891,4.60579c-.44727-.77637-1.44238-1.04297-2.21973-.59473s-1.04395,1.44238-.59473,2.21973l14.07227,24.37402c.30078.52148.84668.8125,1.40918.8125.27539,0,.55469-.07031.81055-.21777ZM36.40648,36.31672c.44922-.77734.18262-1.77148-.59473-2.21973l-12.11133-6.99219c-.7793-.44922-1.77148-.18262-2.21973.59473-.44922.77734-.18262,1.77148.59473,2.21973l12.11133,6.99219c.25586.14746.53516.21777.81055.21777.5625,0,1.1084-.29102,1.40918-.8125ZM34.48266,43.30793c0-.89746-.72754-1.625-1.625-1.625H4.75609c-.89746,0-1.625.72754-1.625,1.625s.72754,1.625,1.625,1.625h28.10156c.89746,0,1.625-.72754,1.625-1.625ZM23.67113,59.54719l12.0625-6.96484c.77734-.44824,1.04395-1.44238.59473-2.21973-.44727-.77637-1.44238-1.04395-2.21973-.59473l-12.0625,6.96484c-.77734.44824-1.04395,1.44238-.59473,2.21973.30078.52148.84668.8125,1.40918.8125.27539,0,.55469-.07031.81055-.21777ZM28.01293,82.05305l14.00098-24.25c.44922-.77734.18262-1.77148-.59473-2.21973-.77832-.44727-1.77148-.18262-2.21973.59473l-14.00098,24.25c-.44922.77734-.18262,1.77148.59473,2.21973.25586.14746.53516.21777.81055.21777.5625,0,1.1084-.29102,1.40918-.8125ZM50.12719,72.97883v-13.87402c0-.89746-.72754-1.625-1.625-1.625s-1.625.72754-1.625,1.625v13.87402c0,.89746.72754,1.625,1.625,1.625s1.625-.72754,1.625-1.625ZM71.19457,82.69172c.77734-.44824,1.04395-1.44238.59473-2.21973l-14-24.24902c-.44824-.77734-1.44141-1.04395-2.21973-.59473-.77734.44824-1.04395,1.44238-.59473,2.21973l14,24.24902c.30078.52148.84668.8125,1.40918.8125.27539,0,.55469-.07031.81055-.21777ZM75.58227,59.00325c.44922-.77734.18262-1.77148-.59473-2.21973l-12.08398-6.97656c-.77832-.44824-1.77148-.18164-2.21973.59473-.44922.77734-.18262,1.77148.59473,2.21973l12.08398,6.97656c.25586.14746.53516.21777.81055.21777.5625,0,1.1084-.29102,1.40918-.8125ZM94.47,40.89482h-42.56836c-.72827-.8905-1.82178-1.47083-3.06177-1.47083-2.19299,0-3.97119,1.77832-3.97119,3.97119,0,2.19299,1.7782,3.97131,3.97119,3.97131,1.24036,0,2.33423-.58057,3.0625-1.47168h42.56763v-5Z"/></svg>